<svg xmlns="http://www.w3.org/2000/svg" width="15.939" height="22.556" viewBox="0 0 15.939 22.556">
    <defs>
        <style>.a{fill:#554ae5;}</style>
    </defs>
    <g transform="translate(-0.332 0)">
        <path class="a" d="M128.971,280.51v1.906a.5.5,0,0,0,.5.5h1.188a.5.5,0,0,0,.5-.5V280.51a1.574,1.574,0,0,0,.532-1.213,1.625,1.625,0,1,0-3.25,0,1.594,1.594,0,0,0,.539,1.212Zm1.085-1.853a.639.639,0,0,1,.635.641.593.593,0,0,1-.285.532.5.5,0,0,0-.247.428v1.663h-.2v-1.663a.5.5,0,0,0-.247-.428.588.588,0,0,1-.293-.532A.639.639,0,0,1,130.056,278.657Zm0,0" transform="translate(-121.758 -263.919)"/>
        <path class="a" d="M2.807,22.556H13.8a2.492,2.492,0,0,0,2.475-2.492V10.511A2.464,2.464,0,0,0,13.8,8.052h-.545V5.115a5.123,5.123,0,0,0-10.247,0V8.052h-.2A2.464,2.464,0,0,0,.332,10.511v9.554A2.492,2.492,0,0,0,2.807,22.556ZM4,5.115a4.133,4.133,0,0,1,8.267,0V8.052H4ZM15.281,20.081A1.485,1.485,0,0,1,13.8,21.566H2.807a1.485,1.485,0,0,1-1.485-1.485V10.528A1.485,1.485,0,0,1,2.807,9.042H13.8a1.485,1.485,0,0,1,1.485,1.485Zm0,0"/>
    </g>
</svg>